<?xml version="1.0" encoding="utf-8"?>
<!-- Generator: Adobe Illustrator 24.2.1, SVG Export Plug-In . SVG Version: 6.00 Build 0)  -->
<svg version="1.1" id="图层_1" xmlns="http://www.w3.org/2000/svg" xmlns:xlink="http://www.w3.org/1999/xlink" x="0px" y="0px"
	 viewBox="0 0 802 120" style="enable-background:new 0 0 802 120;" xml:space="preserve">
<style type="text/css">
	.st0{fill:#FFFFFF;stroke:#FFFFFF;stroke-width:8.6129;stroke-linecap:round;stroke-linejoin:round;stroke-miterlimit:10;}
	.st1{fill:#FFFFFF;stroke:#FFFFFF;stroke-miterlimit:10;}
</style>
<g>
	<path class="st0" d="M444.7,20.4c-5,0-9.1,4.1-9.1,9.1v63.3l-89.9-69.5c-4.5-3.5-10.5-4.1-15.6-1.6c-5.1,2.5-8.3,7.6-8.3,13.3v70.3
		c0,5,4.1,9.1,9.1,9.1c5,0,9.1-4.1,9.1-9.1V42l89.9,69.5c2.6,2,5.8,3.1,9,3.1c2.3,0,4.5-0.5,6.5-1.5c5.1-2.5,8.3-7.6,8.3-13.3V29.5
		C453.8,24.4,449.7,20.4,444.7,20.4z M268.8,20.4H193c-15.5,0-28.1,12.6-28.1,28.1v56.9c0,5,4.1,9.1,9.1,9.1c5,0,9.1-4.1,9.1-9.1V79
		h73.2c5,0,9.1-4.1,9.1-9.1c0-5-4.1-9.1-9.1-9.1h-73.2V48.4c0-5.4,4.4-9.8,9.8-9.8h75.9c5.4,0,9.8,4.4,9.8,9.8v56.9
		c0,5,4.1,9.1,9.1,9.1s9.1-4.1,9.1-9.1V48.4C296.9,33,284.3,20.4,268.8,20.4z M506.7,38.6h94.8c5,0,9.1-4.1,9.1-9.1
		s-4.1-9.1-9.1-9.1h-94.8c-15.5,0-28.1,12.6-28.1,28.1v56.9c0,5,4.1,9.1,9.1,9.1c5,0,9.1-4.1,9.1-9.1V79h104.7c5,0,9.1-4.1,9.1-9.1
		c0-5-4.1-9.1-9.1-9.1H496.9V48.4C496.9,43,501.3,38.6,506.7,38.6z M756.9,20.4c-5,0-9.1,4.1-9.1,9.1v56.9c0,5.4-4.4,9.8-9.8,9.8
		H662c-5.4,0-9.8-4.4-9.8-9.8V29.5c0-5-4.1-9.1-9.1-9.1c-5,0-9.1,4.1-9.1,9.1v56.9c0,15.5,12.6,28.1,28.1,28.1h75.9
		c15.5,0,28.1-12.6,28.1-28.1V29.5C766,24.4,761.9,20.4,756.9,20.4z M131,20.4c-5,0-9.1,4.1-9.1,9.1v63.3L31.9,23.3
		c-4.5-3.5-10.5-4.1-15.6-1.6c-5.1,2.5-8.3,7.6-8.3,13.3v70.3c0,5,4.1,9.1,9.1,9.1c5,0,9.1-4.1,9.1-9.1V42l89.9,69.5
		c2.6,2,5.8,3.1,9,3.1c2.3,0,4.5-0.5,6.5-1.5c5.1-2.5,8.3-7.6,8.3-13.3V29.5C140.1,24.4,136,20.4,131,20.4z"/>
	<g>
		<path class="st1" d="M793.8,11.9c1.5-0.5,2.3-1.5,2.3-3.3c0-3.3-2.3-3.8-4.5-3.8h-4.5v11.5h2.7v-4.1h1.2l2,4.1h3.1l-2.5-4.4
			L793.8,11.9z M791.1,10.4h-1.3V6.9h1.3c1.3,0,2.2,0.1,2.2,1.7C793.4,10.4,792,10.4,791.1,10.4z"/>
		<path class="st1" d="M791.4,0c-6.5,0-10.7,4.2-10.7,10.7c0,6.5,4.1,10.6,10.6,10.6c6.5,0,10.6-4.2,10.6-10.8
			C802,4.1,797.8,0,791.4,0z M791.3,18.9c-5.2,0-7.9-2.9-7.9-8.2c0-5.1,3-8.2,7.9-8.2c5.1,0,8.1,3,8.1,8.1
			C799.4,15.8,796.5,18.9,791.3,18.9z"/>
	</g>
</g>
</svg>
